<svg width="14" height="14" viewBox="0 0 14 14" fill="none" xmlns="http://www.w3.org/2000/svg">
<path d="M13.6317 2.26765L7.17023 0.0287276C7.05969 -0.00957588 6.94019 -0.00957588 6.82965 0.0287276L0.36817 2.26765C0.260953 2.3048 0.167701 2.37608 0.101623 2.47139C0.0355447 2.5667 -8.37454e-06 2.68121 1.47965e-09 2.79869V8.39599C1.47965e-09 8.54444 0.0567301 8.68681 0.15771 8.79178C0.258691 8.89675 0.395649 8.95572 0.538457 8.95572C0.681265 8.95572 0.818223 8.89675 0.919203 8.79178C1.02018 8.68681 1.07691 8.54444 1.07691 8.39599V3.57532L3.33776 4.35824C2.73708 5.36702 2.54607 6.58236 2.80666 7.7374C3.06726 8.89245 3.75815 9.89279 4.72765 10.5188C3.51612 11.0127 2.46882 11.9062 1.70287 13.1278C1.66303 13.1894 1.63537 13.2585 1.62147 13.3313C1.60757 13.404 1.60773 13.4789 1.62193 13.5516C1.63612 13.6243 1.66408 13.6934 1.70417 13.7547C1.74426 13.8161 1.79569 13.8686 1.85546 13.9091C1.91523 13.9496 1.98215 13.9774 2.05233 13.9908C2.12252 14.0042 2.19457 14.003 2.26429 13.9872C2.33401 13.9714 2.40002 13.9413 2.45847 13.8988C2.51693 13.8562 2.56666 13.802 2.60479 13.7393C3.6191 12.1217 5.22101 11.1946 6.99994 11.1946C8.77887 11.1946 10.3808 12.1217 11.3951 13.7393C11.4741 13.8613 11.5961 13.9461 11.7347 13.9754C11.8734 14.0047 12.0175 13.976 12.136 13.8957C12.2545 13.8153 12.3378 13.6897 12.3679 13.5461C12.3981 13.4024 12.3726 13.2521 12.297 13.1278C11.5311 11.9062 10.4797 11.0127 9.27223 10.5188C10.2408 9.89281 10.931 8.89313 11.1916 7.73892C11.4521 6.58472 11.2617 5.37022 10.6621 4.36174L13.6317 3.33323C13.7389 3.2961 13.8322 3.22483 13.8983 3.12952C13.9644 3.03421 14 2.91969 14 2.80219C14 2.68469 13.9644 2.57017 13.8983 2.47486C13.8322 2.37955 13.7389 2.30828 13.6317 2.27115V2.26765ZM10.2307 6.7168C10.2308 7.24775 10.1099 7.77116 9.87773 8.2441C9.6456 8.71704 9.3089 9.12602 8.89526 9.4375C8.48162 9.74898 8.00284 9.95408 7.49818 10.036C6.99353 10.1178 6.47739 10.0742 5.99212 9.90855C5.50684 9.74292 5.06625 9.46005 4.70651 9.08315C4.34677 8.70624 4.07812 8.24605 3.9226 7.74031C3.76708 7.23458 3.72913 6.69772 3.81186 6.17379C3.89459 5.64986 4.09564 5.15378 4.39852 4.72626L6.82965 5.56586C6.94019 5.60416 7.05969 5.60416 7.17023 5.56586L9.60136 4.72626C10.0104 5.30278 10.231 6.00042 10.2307 6.7168ZM6.99994 4.4478L2.24133 2.79869L6.99994 1.14959L11.7586 2.79869L6.99994 4.4478Z" fill="#24DAA3"/>
</svg>
