<svg width="22" height="21" viewBox="0 0 22 21" fill="none" xmlns="http://www.w3.org/2000/svg">
<path d="M19.1481 0.5H2.85185C2.09549 0.5 1.37011 0.794999 0.835288 1.3201C0.300462 1.8452 0 2.55739 0 3.3V14.1C0 14.8426 0.300462 15.5548 0.835288 16.0799C1.37011 16.605 2.09549 16.9 2.85185 16.9H9.77778V18.1H7.74074C7.41659 18.1 7.10571 18.2264 6.8765 18.4515C6.64729 18.6765 6.51852 18.9817 6.51852 19.3C6.51852 19.6183 6.64729 19.9235 6.8765 20.1485C7.10571 20.3736 7.41659 20.5 7.74074 20.5H14.2593C14.5834 20.5 14.8943 20.3736 15.1235 20.1485C15.3527 19.9235 15.4815 19.6183 15.4815 19.3C15.4815 18.9817 15.3527 18.6765 15.1235 18.4515C14.8943 18.2264 14.5834 18.1 14.2593 18.1H12.2222V16.9H19.1481C19.5227 16.9 19.8935 16.8276 20.2395 16.6869C20.5855 16.5462 20.8999 16.3399 21.1647 16.0799C21.4295 15.8199 21.6396 15.5112 21.7829 15.1715C21.9262 14.8318 22 14.4677 22 14.1V3.3C22 2.9323 21.9262 2.5682 21.7829 2.22849C21.6396 1.88877 21.4295 1.58011 21.1647 1.3201C20.8999 1.0601 20.5855 0.853851 20.2395 0.713137C19.8935 0.572424 19.5227 0.5 19.1481 0.5ZM2.85185 2.9H19.1481C19.2562 2.9 19.3598 2.94214 19.4362 3.01716C19.5126 3.09217 19.5556 3.19391 19.5556 3.3V10.5H2.44444V3.3C2.44444 3.19391 2.48737 3.09217 2.56377 3.01716C2.64018 2.94214 2.7438 2.9 2.85185 2.9ZM19.1481 14.5H2.85185C2.7438 14.5 2.64018 14.4579 2.56377 14.3828C2.48737 14.3078 2.44444 14.2061 2.44444 14.1V12.9H19.5556V14.1C19.5556 14.2061 19.5126 14.3078 19.4362 14.3828C19.3598 14.4579 19.2562 14.5 19.1481 14.5Z" fill="url(#paint0_linear_20_311)"/>
<defs>
<linearGradient id="paint0_linear_20_311" x1="11" y1="0.5" x2="11" y2="20.5" gradientUnits="userSpaceOnUse">
<stop offset="0.114583" stop-color="#9CF9DD"/>
<stop offset="0.96875" stop-color="#0EB683"/>
</linearGradient>
</defs>
</svg>
