<svg width="18" height="18" viewBox="0 0 18 18" fill="none" xmlns="http://www.w3.org/2000/svg">
<path d="M5.13948 8.48559L5.13945 8.48555C4.94457 8.29068 4.83509 8.02637 4.83509 7.75078C4.83509 7.47519 4.94457 7.21088 5.13945 7.01601C5.33432 6.82113 5.59863 6.71165 5.87422 6.71165C6.1498 6.71165 6.41408 6.82112 6.60896 7.01597C6.60897 7.01598 6.60898 7.016 6.60899 7.01601L7.9625 8.36813V2.125C7.9625 1.84984 8.07181 1.58595 8.26638 1.39138C8.46095 1.19681 8.72484 1.0875 9 1.0875C9.27516 1.0875 9.53905 1.19681 9.73362 1.39138C9.92819 1.58595 10.0375 1.84984 10.0375 2.125V8.36795L11.391 7.01445C11.5859 6.81957 11.8502 6.71009 12.1258 6.71009C12.4014 6.71009 12.6657 6.81957 12.8606 7.01445C13.0554 7.20932 13.1649 7.47363 13.1649 7.74922C13.1649 8.02481 13.0554 8.28912 12.8606 8.48399L9.73568 11.6089L5.13948 8.48559ZM5.13948 8.48559L8.26588 11.6089C8.2659 11.6089 8.26591 11.6089 8.26592 11.6089M5.13948 8.48559L8.26592 11.6089M8.26592 11.6089C8.3623 11.7056 8.47682 11.7823 8.60292 11.8347C8.72902 11.8871 8.86423 11.914 9.00078 11.914C9.13733 11.914 9.27254 11.8871 9.39865 11.8347C9.5247 11.7824 9.63919 11.7057 9.73555 11.609L8.26592 11.6089ZM16.9125 15.25V10.875C16.9125 10.5998 16.8032 10.3359 16.6086 10.1414C16.4141 9.94681 16.1502 9.8375 15.875 9.8375C15.5998 9.8375 15.3359 9.94681 15.1414 10.1414C14.9468 10.3359 14.8375 10.5998 14.8375 10.875V14.8375H3.1625V10.875C3.1625 10.5998 3.05319 10.3359 2.85862 10.1414C2.66405 9.94681 2.40016 9.8375 2.125 9.8375C1.84984 9.8375 1.58595 9.94681 1.39138 10.1414C1.19681 10.3359 1.0875 10.5998 1.0875 10.875V15.25C1.0875 15.6909 1.26266 16.1138 1.57443 16.4256C1.88621 16.7373 2.30908 16.9125 2.75 16.9125H15.25C15.6909 16.9125 16.1138 16.7373 16.4256 16.4256C16.7373 16.1138 16.9125 15.6909 16.9125 15.25Z" fill="#083A2B" stroke="#083A2B" stroke-width="0.2"/>
</svg>
