<svg width="17" height="20" viewBox="0 0 17 20" fill="none" xmlns="http://www.w3.org/2000/svg">
<path d="M15.6454 8.63125L2.51567 1.13906C2.23866 0.983876 1.92094 0.916767 1.60483 0.946676C1.28872 0.976585 0.98922 1.10209 0.746227 1.30648C0.503234 1.51087 0.328277 1.78444 0.24466 2.09076C0.161043 2.39707 0.172733 2.72159 0.278174 3.0211L2.66958 9.99063L0.278174 16.9789C0.194834 17.2145 0.169216 17.4666 0.203468 17.7142C0.237721 17.9617 0.330845 18.1974 0.475027 18.4015C0.619209 18.6056 0.810242 18.7722 1.0321 18.8872C1.25395 19.0022 1.50016 19.0623 1.75005 19.0625C2.01855 19.0619 2.28242 18.9925 2.51646 18.8609L2.52349 18.8563L15.6485 11.3508C15.8891 11.2146 16.0893 11.0169 16.2286 10.778C16.3679 10.5391 16.4413 10.2675 16.4413 9.99102C16.4413 9.71449 16.3679 9.44291 16.2286 9.20402C16.0893 8.96512 15.8891 8.76747 15.6485 8.63125H15.6454ZM2.31567 16.8148L4.32817 10.9375H8.62505C8.87369 10.9375 9.11215 10.8387 9.28796 10.6629C9.46378 10.4871 9.56255 10.2486 9.56255 10C9.56255 9.75136 9.46378 9.51291 9.28796 9.33709C9.11215 9.16127 8.87369 9.0625 8.62505 9.0625H4.33364L2.31646 3.18438L14.2454 9.99141L2.31567 16.8148Z" fill="#083A2B"/>
</svg>
