<svg width="21" height="15" viewBox="0 0 21 15" fill="none" xmlns="http://www.w3.org/2000/svg">
<path d="M20.5899 7.10051C20.5595 7.03406 19.8409 5.43855 18.2536 3.85125C16.1299 1.73074 13.4532 0.609375 10.5 0.609375C7.54692 0.609375 4.87024 1.73074 2.74891 3.85125C1.16161 5.43855 0.443016 7.03406 0.410204 7.10051C0.35463 7.2265 0.325928 7.3627 0.325928 7.50041C0.325928 7.63812 0.35463 7.77432 0.410204 7.90031C0.440555 7.96758 1.15915 9.56227 2.74727 11.1496C4.87024 13.2701 7.54692 14.3906 10.5 14.3906C13.4532 14.3906 16.1299 13.2701 18.2504 11.1496C19.8385 9.56227 20.5571 7.96758 20.5874 7.90031C20.6434 7.77449 20.6725 7.63838 20.6729 7.50067C20.6734 7.36296 20.6451 7.22668 20.5899 7.10051ZM16.8115 9.80754C15.0503 11.5417 12.9274 12.4219 10.5 12.4219C8.07274 12.4219 5.94977 11.5417 4.19102 9.80672C3.49896 9.12194 2.90366 8.34587 2.42161 7.5C2.9038 6.65447 3.49909 5.87868 4.19102 5.1941C5.95059 3.45832 8.07274 2.57812 10.5 2.57812C12.9274 2.57812 15.0495 3.45832 16.8091 5.1941C17.5011 5.87862 18.0964 6.65442 18.5785 7.5C18.0964 8.34582 17.5011 9.12188 16.8091 9.80672L16.8115 9.80754ZM10.5 3.89062C9.78618 3.89062 9.08835 4.10231 8.49479 4.49891C7.90123 4.89552 7.43861 5.45922 7.16542 6.11875C6.89224 6.77828 6.82076 7.504 6.96003 8.20415C7.0993 8.9043 7.44305 9.54743 7.94783 10.0522C8.45261 10.557 9.09574 10.9008 9.79589 11.04C10.496 11.1793 11.2218 11.1078 11.8813 10.8346C12.5408 10.5614 13.1045 10.0988 13.5011 9.50526C13.8977 8.9117 14.1094 8.21387 14.1094 7.5C14.1083 6.54307 13.7277 5.62564 13.0511 4.94899C12.3744 4.27233 11.457 3.89171 10.5 3.89062ZM10.5 9.14062C10.1756 9.14062 9.85837 9.0444 9.58857 8.86413C9.31877 8.68386 9.10848 8.42763 8.98431 8.12784C8.86013 7.82806 8.82764 7.49818 8.89095 7.17993C8.95425 6.86168 9.11051 6.56935 9.33995 6.3399C9.5694 6.11046 9.86173 5.9542 10.18 5.8909C10.4982 5.8276 10.8281 5.86008 11.1279 5.98426C11.4277 6.10844 11.6839 6.31872 11.8642 6.58852C12.0445 6.85832 12.1407 7.17552 12.1407 7.5C12.1407 7.93512 11.9678 8.35242 11.6601 8.6601C11.3525 8.96777 10.9352 9.14062 10.5 9.14062Z" fill="#083A2B"/>
</svg>
