<svg width="22" height="22" viewBox="0 0 22 22" fill="none" xmlns="http://www.w3.org/2000/svg">
<path d="M11 6.125C10.0358 6.125 9.09328 6.41091 8.29159 6.94659C7.48991 7.48226 6.86506 8.24363 6.49609 9.13442C6.12711 10.0252 6.03057 11.0054 6.21867 11.9511C6.40677 12.8967 6.87107 13.7654 7.55285 14.4471C8.23464 15.1289 9.10328 15.5932 10.0489 15.7813C10.9946 15.9694 11.9748 15.8729 12.8656 15.5039C13.7564 15.1349 14.5177 14.5101 15.0534 13.7084C15.5891 12.9067 15.875 11.9642 15.875 11C15.8737 9.70748 15.3596 8.46829 14.4457 7.55434C13.5317 6.64039 12.2925 6.12634 11 6.125ZM11 14.25C10.3572 14.25 9.72886 14.0594 9.1944 13.7023C8.65994 13.3452 8.24338 12.8376 7.99739 12.2437C7.75141 11.6499 7.68705 10.9964 7.81245 10.366C7.93785 9.73552 8.24738 9.15642 8.7019 8.7019C9.15642 8.24738 9.73552 7.93785 10.366 7.81245C10.9964 7.68705 11.6499 7.75141 12.2437 7.99739C12.8376 8.24338 13.3452 8.65994 13.7023 9.1944C14.0594 9.72886 14.25 10.3572 14.25 11C14.25 11.862 13.9076 12.6886 13.2981 13.2981C12.6886 13.9076 11.862 14.25 11 14.25ZM15.875 0.4375H6.125C4.61708 0.439113 3.17138 1.03885 2.10511 2.10511C1.03885 3.17138 0.439113 4.61708 0.4375 6.125V15.875C0.439113 17.3829 1.03885 18.8286 2.10511 19.8949C3.17138 20.9612 4.61708 21.5609 6.125 21.5625H15.875C17.3829 21.5609 18.8286 20.9612 19.8949 19.8949C20.9612 18.8286 21.5609 17.3829 21.5625 15.875V6.125C21.5609 4.61708 20.9612 3.17138 19.8949 2.10511C18.8286 1.03885 17.3829 0.439113 15.875 0.4375ZM19.9375 15.875C19.9375 16.9524 19.5095 17.9858 18.7476 18.7476C17.9858 19.5095 16.9524 19.9375 15.875 19.9375H6.125C5.04756 19.9375 4.01425 19.5095 3.25238 18.7476C2.49051 17.9858 2.0625 16.9524 2.0625 15.875V6.125C2.0625 5.04756 2.49051 4.01425 3.25238 3.25238C4.01425 2.49051 5.04756 2.0625 6.125 2.0625H15.875C16.9524 2.0625 17.9858 2.49051 18.7476 3.25238C19.5095 4.01425 19.9375 5.04756 19.9375 6.125V15.875ZM17.5 5.71875C17.5 5.9598 17.4285 6.19543 17.2946 6.39585C17.1607 6.59627 16.9703 6.75248 16.7476 6.84473C16.5249 6.93697 16.2799 6.96111 16.0435 6.91408C15.8071 6.86706 15.5899 6.75098 15.4195 6.58054C15.249 6.41009 15.1329 6.19293 15.0859 5.95652C15.0389 5.7201 15.063 5.47505 15.1553 5.25235C15.2475 5.02966 15.4037 4.83931 15.6041 4.7054C15.8046 4.57148 16.0402 4.5 16.2812 4.5C16.6045 4.5 16.9145 4.6284 17.143 4.85696C17.3716 5.08552 17.5 5.39552 17.5 5.71875Z" fill="#B6B5B4"/>
</svg>
