<svg width="22" height="19" viewBox="0 0 22 19" fill="none" xmlns="http://www.w3.org/2000/svg">
<path d="M21.8799 17.3921L16.5695 7.17379C16.4749 6.99208 16.3297 6.83928 16.15 6.7325C15.9703 6.62571 15.7632 6.56916 15.552 6.56916C15.3408 6.56916 15.1337 6.62571 14.954 6.7325C14.7743 6.83928 14.629 6.99208 14.5345 7.17379L12.5886 10.9144C11.2776 10.8042 10.0153 10.3839 8.91395 9.69095C10.2523 8.19351 11.0895 6.34215 11.316 4.37927H13.2761C13.5779 4.37927 13.8673 4.26392 14.0807 4.0586C14.2942 3.85328 14.414 3.57481 14.414 3.28445C14.414 2.99409 14.2942 2.71562 14.0807 2.5103C13.8673 2.30498 13.5779 2.18963 13.2761 2.18963H8.34497V1.09482C8.34497 0.804453 8.22508 0.525982 8.01167 0.320664C7.79827 0.115346 7.50882 0 7.20702 0C6.90522 0 6.61578 0.115346 6.40237 0.320664C6.18896 0.525982 6.06907 0.804453 6.06907 1.09482V2.18963H1.13795C0.836147 2.18963 0.546705 2.30498 0.333298 2.5103C0.119891 2.71562 0 2.99409 0 3.28445C0 3.57481 0.119891 3.85328 0.333298 4.0586C0.546705 4.26392 0.836147 4.37927 1.13795 4.37927H9.0211C8.80765 5.80613 8.1787 7.14571 7.20702 8.24306C6.73284 7.7092 6.33718 7.11518 6.03114 6.47767C5.9712 6.34358 5.88399 6.22239 5.77466 6.1212C5.66532 6.02002 5.53606 5.94089 5.39447 5.88847C5.25288 5.83605 5.10183 5.81139 4.95019 5.81596C4.79856 5.82052 4.6494 5.85421 4.5115 5.91505C4.3736 5.97588 4.24973 6.06263 4.14718 6.17019C4.04463 6.27775 3.96547 6.40396 3.91436 6.54138C3.86325 6.67881 3.84121 6.82468 3.84955 6.97042C3.85789 7.11615 3.89643 7.25882 3.96291 7.39001C4.36098 8.22292 4.87841 8.99804 5.5001 9.69278C4.20506 10.5129 2.68836 10.9494 1.13795 10.9482C0.836147 10.9482 0.546705 11.0635 0.333298 11.2688C0.119891 11.4742 0 11.7526 0 12.043C0 12.3333 0.119891 12.6118 0.333298 12.8171C0.546705 13.0225 0.836147 13.1378 1.13795 13.1378C3.32285 13.1395 5.45048 12.4656 7.20702 11.2155C8.48086 12.1174 9.95384 12.7243 11.5113 12.9891L9.22309 17.3921C9.15197 17.521 9.10838 17.6624 9.09488 17.8078C9.08139 17.9532 9.09826 18.0998 9.14451 18.2388C9.19075 18.3779 9.26544 18.5066 9.36417 18.6175C9.46291 18.7284 9.58369 18.8191 9.71942 18.8844C9.85515 18.9497 10.0031 18.9882 10.1545 18.9977C10.3059 19.0072 10.4578 18.9874 10.6012 18.9396C10.7446 18.8917 10.8765 18.8168 10.9894 18.7191C11.1022 18.6215 11.1936 18.5031 11.2581 18.371L12.4615 16.0573H18.6415L19.844 18.371C19.9108 18.4996 20.0033 18.6143 20.1161 18.7086C20.229 18.8028 20.3601 18.8747 20.5019 18.9202C20.6436 18.9657 20.7933 18.9839 20.9424 18.9737C21.0915 18.9636 21.237 18.9252 21.3707 18.861C21.5044 18.7967 21.6236 18.7077 21.7216 18.5991C21.8195 18.4905 21.8942 18.3644 21.9415 18.228C21.9888 18.0916 22.0077 17.9476 21.9972 17.8041C21.9866 17.6607 21.9468 17.5207 21.8799 17.3921ZM13.5995 13.8677L15.552 10.1115L17.5036 13.8677H13.5995Z" fill="url(#paint0_linear_20_317)"/>
<defs>
<linearGradient id="paint0_linear_20_317" x1="11" y1="0" x2="11" y2="19" gradientUnits="userSpaceOnUse">
<stop offset="0.114583" stop-color="#9CF9DD"/>
<stop offset="0.96875" stop-color="#0EB683"/>
</linearGradient>
</defs>
</svg>
