<svg width="15" height="15" viewBox="0 0 15 15" fill="none" xmlns="http://www.w3.org/2000/svg">
<path d="M14.0625 5.34375C14.0625 5.56753 13.9736 5.78214 13.8154 5.94037C13.6571 6.09861 13.4425 6.1875 13.2188 6.1875C12.995 6.1875 12.7804 6.09861 12.6221 5.94037C12.4639 5.78214 12.375 5.56753 12.375 5.34375V2.88281L8.1907 7.06711C8.0322 7.22562 7.81721 7.31467 7.59305 7.31467C7.36888 7.31467 7.1539 7.22562 6.99539 7.06711C6.83688 6.9086 6.74783 6.69362 6.74783 6.46945C6.74783 6.24529 6.83688 6.03031 6.99539 5.8718L11.1797 1.6875H8.71875C8.49497 1.6875 8.28036 1.59861 8.12213 1.44037C7.9639 1.28214 7.875 1.06753 7.875 0.84375C7.875 0.619974 7.9639 0.405362 8.12213 0.247129C8.28036 0.0888949 8.49497 0 8.71875 0H13.2188C13.4425 0 13.6571 0.0888949 13.8154 0.247129C13.9736 0.405362 14.0625 0.619974 14.0625 0.84375V5.34375ZM10.9688 7.03125C10.745 7.03125 10.5304 7.12015 10.3721 7.27838C10.2139 7.43661 10.125 7.65122 10.125 7.875V12.375H1.6875V3.9375H6.1875C6.41128 3.9375 6.62589 3.84861 6.78412 3.69037C6.94236 3.53214 7.03125 3.31753 7.03125 3.09375C7.03125 2.86997 6.94236 2.65536 6.78412 2.49713C6.62589 2.33889 6.41128 2.25 6.1875 2.25H1.40625C1.03329 2.25 0.675604 2.39816 0.411881 2.66188C0.148158 2.9256 0 3.28329 0 3.65625V12.6562C0 13.0292 0.148158 13.3869 0.411881 13.6506C0.675604 13.9143 1.03329 14.0625 1.40625 14.0625H10.4062C10.7792 14.0625 11.1369 13.9143 11.4006 13.6506C11.6643 13.3869 11.8125 13.0292 11.8125 12.6562V7.875C11.8125 7.65122 11.7236 7.43661 11.5654 7.27838C11.4071 7.12015 11.1925 7.03125 10.9688 7.03125Z" fill="#24DAA3"/>
</svg>
