<svg width="21" height="21" viewBox="0 0 21 21" fill="none" xmlns="http://www.w3.org/2000/svg">
<mask id="path-1-outside-1_118_134" maskUnits="userSpaceOnUse" x="0" y="0" width="21" height="21" fill="black">
<rect fill="white" width="21" height="21"/>
<path d="M6.46154 10.5C6.46154 8.26962 8.26962 6.46154 10.5 6.46154C12.7304 6.46154 14.5385 8.26962 14.5385 10.5C14.5385 12.7304 12.7304 14.5385 10.5 14.5385C8.26962 14.5385 6.46154 12.7304 6.46154 10.5Z"/>
<path d="M3 10.5C3 6.35786 6.35786 3 10.5 3C14.6421 3 18 6.35786 18 10.5C18 14.6421 14.6421 18 10.5 18C6.35786 18 3 14.6421 3 10.5Z"/>
</mask>
<path d="M6.46154 10.5C6.46154 8.26962 8.26962 6.46154 10.5 6.46154C12.7304 6.46154 14.5385 8.26962 14.5385 10.5C14.5385 12.7304 12.7304 14.5385 10.5 14.5385C8.26962 14.5385 6.46154 12.7304 6.46154 10.5Z" fill="#3FE7B4"/>
<path d="M6.46154 10.5C6.46154 8.26962 8.26962 6.46154 10.5 6.46154C12.7304 6.46154 14.5385 8.26962 14.5385 10.5C14.5385 12.7304 12.7304 14.5385 10.5 14.5385C8.26962 14.5385 6.46154 12.7304 6.46154 10.5Z" stroke="#3FE7B4" stroke-width="6" mask="url(#path-1-outside-1_118_134)"/>
<path d="M3 10.5C3 6.35786 6.35786 3 10.5 3C14.6421 3 18 6.35786 18 10.5C18 14.6421 14.6421 18 10.5 18C6.35786 18 3 14.6421 3 10.5Z" stroke="#3FE7B4" stroke-width="6" mask="url(#path-1-outside-1_118_134)"/>
</svg>
