<svg width="234" height="14" viewBox="0 0 234 14" fill="none" xmlns="http://www.w3.org/2000/svg">
<path d="M1.18857 11.8501C27.0269 11.3991 52.8652 10.9481 78.7035 10.4971C94.762 10.2168 110.821 9.93651 126.879 9.65621C141.528 9.40052 156.127 8.31442 170.793 8.05843C180.996 7.88034 191.16 6.87166 201.341 6.69394C204.003 6.64747 206.666 6.601 209.328 6.55453C213.269 6.48573 217.053 5.58842 220.948 5.52045C223.229 5.48063 225.336 5.02821 227.588 4.9889C228.266 4.97708 230.841 4.52128 230.005 4.508C222.915 4.39549 215.912 4.77707 208.86 4.90016C200.073 5.05355 191.286 5.20693 182.499 5.36031C174.336 5.5028 166.245 4.81275 158.085 4.95519C140.095 5.2692 122.063 5.60547 104.134 4.32674C92.7673 3.51602 81.1493 5.3273 69.8193 4.20989C64.1259 3.64839 57.8872 3.79472 52.1725 3.89447C45.9157 4.00368 39.8484 2.86947 33.6539 2.57827C28.3084 2.32699 22.9861 2.18375 17.6416 1.98032C15.1976 1.8873 12.8093 1.2565 10.3561 1.29932C9.64344 1.31176 6.65665 1.83449 6.08405 1.28152C5.80762 1.01459 9.47889 0.898998 9.72562 0.894691C13.9556 0.820856 18.1619 1.4309 22.3916 1.59723C39.4008 2.26611 56.403 4.11688 73.3923 5.18661C101.359 6.94751 129.32 8.78233 157.358 8.29293C175.093 7.98338 192.672 9.47098 210.379 9.88434C214.325 9.97645 218.611 10.2412 222.473 10.874C225.991 11.4503 229.6 11.7333 233.121 12.3737" stroke="#24DAA3" stroke-width="1.5" stroke-linecap="round"/>
</svg>
