<svg width="20" height="21" viewBox="0 0 20 21" fill="none" xmlns="http://www.w3.org/2000/svg">
<path d="M19.4615 8.37478L11.1281 0.448702C11.124 0.44512 11.1202 0.44126 11.1167 0.437151C10.8099 0.155867 10.41 0 9.99531 0C9.58059 0 9.18077 0.155867 8.87396 0.437151L8.8625 0.448702L0.538541 8.37478C0.368748 8.53217 0.233212 8.72338 0.140512 8.93631C0.0478117 9.14924 -3.50446e-05 9.37925 1.92581e-08 9.61178V19.3199C1.92581e-08 19.7655 0.175595 20.1928 0.488155 20.5079C0.800716 20.823 1.22464 21 1.66667 21H6.66667C7.10869 21 7.53262 20.823 7.84518 20.5079C8.15774 20.1928 8.33333 19.7655 8.33333 19.3199V14.2794H11.6667V19.3199C11.6667 19.7655 11.8423 20.1928 12.1548 20.5079C12.4674 20.823 12.8913 21 13.3333 21H18.3333C18.7754 21 19.1993 20.823 19.5118 20.5079C19.8244 20.1928 20 19.7655 20 19.3199V9.61178C20 9.37925 19.9522 9.14924 19.8595 8.93631C19.7668 8.72338 19.6313 8.53217 19.4615 8.37478ZM18.3333 19.3199H13.3333V14.2794C13.3333 13.8338 13.1577 13.4065 12.8452 13.0914C12.5326 12.7763 12.1087 12.5993 11.6667 12.5993H8.33333C7.89131 12.5993 7.46738 12.7763 7.15482 13.0914C6.84226 13.4065 6.66667 13.8338 6.66667 14.2794V19.3199H1.66667V9.61178L1.67813 9.60128L10 1.67836L18.3229 9.59918L18.3344 9.60968L18.3333 19.3199Z" fill="#FCFCFC"/>
</svg>
